<?xml version="1.0" standalone="no"?><!DOCTYPE svg PUBLIC "-//W3C//DTD SVG 1.1//EN" "http://www.w3.org/Graphics/SVG/1.1/DTD/svg11.dtd"><svg t="1627898202748" class="icon" viewBox="0 0 1024 1024" version="1.1" xmlns="http://www.w3.org/2000/svg" p-id="4435" width="16" height="16" xmlns:xlink="http://www.w3.org/1999/xlink"><defs><style type="text/css"></style></defs><path d="M840.192497 1024h-178.309309a64.60482199 64.60482199 0 0 1-64.604823-64.60482199V646.06179001H419.615104v311.39524299a64.60482199 64.60482199 0 0 1-64.60482199 64.60482201H181.22331001a64.60482199 64.60482199 0 0 1-64.60482201-64.60482201V525.250772H76.56349801a58.14434 58.14434 0 0 1-58.79038802-38.762893A64.60482199 64.60482199 0 0 1 31.34012201 416.06862201L470.65291398 18.102917a64.60482199 64.60482199 0 0 1 89.80070302 0l432.85230898 396.67360897a64.60482199 64.60482199 0 0 1-45.86942396 109.82819803h-44.57732703v436.72859802a64.60482199 64.60482199 0 0 1-62.66667799 62.66667798zM422.19929699 585.979305h179.60140602a64.60482199 64.60482199 0 0 1 64.60482199 64.604822v313.333388h175.72511699V465.168287h109.18214901L515.876289 64.618389 76.56349801 462.58409399h107.89005299v501.33342101h178.95535801v-310.74919499a64.60482199 64.60482199 0 0 1 58.79038798-67.18901501z" fill="#d81e06" p-id="4436"></path></svg>